<svg width="155" height="155" viewBox="0 0 155 155" fill="none" xmlns="http://www.w3.org/2000/svg">
<path d="M10.074 16.8607C12.3298 16.9116 8.26825 21.0735 10.6754 20.8481C12.7065 20.6937 16.0794 17.5779 17.4466 17.161C18.7907 16.7511 22.1868 17.6126 24.0674 16.6345C26.5502 15.3553 26.7756 7.60587 24.8201 6.25331C23.6914 5.50138 19.7789 5.27518 16.3936 5.27518C10.6036 5.35238 8.41879 5.95223 7.51555 6.78059C5.7847 8.36012 6.08656 15.2819 7.29012 16.1844C8.12131 16.7031 9.09747 16.9402 10.074 16.8607Z" fill="#3D9CFB"/>
<path d="M30.3871 60.798C27.4527 58.6163 7.29019 59.2903 5.71298 61.6256C3.60617 64.6364 3.15532 75.0176 5.11158 76.4481C6.01473 77.0862 7.09379 77.428 8.19961 77.4263C11.7362 77.4263 6.9204 82.5424 9.32829 82.9191C11.134 83.2194 16.4755 78.4801 18.5823 77.803C20.6891 77.2008 26.5572 78.4044 29.4916 76.8998C33.3215 74.9427 33.3215 62.9797 30.3871 60.798Z" fill="#3D9CFB"/>
<path d="M18.4999 48.4593C22.4788 50.7915 32.0278 47.3785 34.526 50.9421C37.6102 55.5316 38.7389 57.413 40.9954 56.7321C43.0274 56.13 42.8012 51.8415 43.0274 49.7346C43.1818 47.7784 47.8285 49.0916 50.1746 48.3057C51.5959 47.8286 52.5068 43.2645 52.3563 38.2989C52.1309 29.2703 51.3033 26.3367 49.1208 25.1323C45.585 23.3274 21.7624 22.9591 17.5226 26.0356C13.8686 28.6905 13.1584 45.3002 18.4999 48.4593ZM18.6543 27.5441C20.159 26.3405 24.974 25.7383 31.8201 25.4373C42.6537 24.9108 46.7199 26.1151 48.4469 26.5659C51.0802 27.1681 51.5349 45.45 49.2752 46.6536C47.2433 47.7822 42.2862 45.7673 41.5258 49.5872C41.2548 50.9475 41.5258 54.8538 40.3971 55.0044C39.1936 55.1588 37.4635 51.1675 34.98 49.1371C33.6664 48.0707 32.0014 47.5343 30.3124 47.6332C25.6479 47.7104 21.3571 48.0841 19.5537 47.0311C17.9742 46.1278 16.8455 43.6451 16.5429 39.3566C16.0928 33.3372 16.9204 28.8982 18.6512 27.5441H18.6543Z" fill="#3D9CFB"/>
<path d="M126.313 7.53115C125.485 7.30572 120.594 6.8541 113.447 6.92898C105.773 7.08338 104.042 7.60603 102.914 8.50928C100.883 10.0896 101.184 15.7322 101.41 18.892C101.635 22.8794 102.539 24.3092 104.421 25.0611C106.903 26.0393 110.74 25.5127 114.352 25.8887C120.973 30.7794 122.101 31.9104 123.906 31.607C127.142 31.0805 124.659 27.3934 124.283 25.3622C125.412 25.0611 127.367 25.5166 128.421 24.76C129.774 23.7827 129.697 20.9988 129.774 17.7633C129.851 13.3243 129.851 8.50928 126.313 7.53115ZM127.065 23.03C125.71 23.6314 123.303 23.03 122.626 23.9324C121.723 24.9862 124.281 29.575 123.83 29.9541C122.776 30.6311 117.133 24.164 114.124 24.0096C110.889 23.8552 106.751 24.164 105.021 23.2569C103.893 22.6555 103.216 21.6774 102.989 18.5925C102.402 8.59729 103.424 8.89297 114.35 8.73625C122.476 8.51082 125.184 9.18787 126.085 9.56461C127.439 10.0911 128.078 10.464 128.192 16.7867C128.247 19.7937 127.742 22.8038 127.065 23.03Z" fill="#3D9CFB"/>
<path d="M46.8613 121.592C46.6351 120.613 49.2692 115.647 48.3659 114.67C47.4627 113.694 43.476 117.454 42.7233 117.527C41.8957 117.604 39.1875 113.614 37.7578 114.439C36.328 115.263 37.6034 119.856 37.3818 121.06C37.1603 122.263 31.7392 126.025 32.2657 127.455C32.6417 128.508 37.7578 127.455 38.0558 127.981C38.6572 129.185 38.6572 134.527 39.7858 134.602C41.2913 134.679 42.6423 129.034 43.473 128.508C44.3036 127.981 51.9743 129.938 52.8019 128.585C54.0116 126.855 47.1655 122.567 46.8613 121.592Z" fill="#3D9CFB"/>
<path d="M122.024 130.692C113.523 128.736 111.34 132.798 107.429 137.163C105.021 139.871 104.946 141.074 108.407 141.45C109.685 141.605 110.362 140.021 111.34 140.096C112.604 140.231 113.86 140.432 115.102 140.698C115.779 140.924 115.329 142.428 116.231 142.88C117.134 143.332 120.294 143.256 121.122 143.031C121.723 142.804 122.776 136.711 123.228 133.325C123.529 131.896 123.454 131.068 122.024 130.692Z" fill="#3D9CFB"/>
<path d="M82.4501 96.0084C79.9674 97.1371 79.8925 108.573 82.2247 110.002C85.6856 112.56 101.71 114.365 104.118 111.883C105.848 109.851 105.472 99.4693 103.666 97.5887C101.485 96.0833 85.61 94.8797 82.4501 96.0084Z" fill="#3D9CFB"/>
<path d="M149.712 59.0682C147.304 52.1464 145.874 47.3337 140.307 48.7604C139.398 48.9792 138.582 49.4796 137.975 50.1901C135.567 45.8267 131.353 45.9773 128.721 47.7822C124.733 43.4188 105.322 34.6164 99.2302 35.5189C95.9947 31.306 87.3413 36.2716 88.2453 26.9419C88.3225 26.3405 88.2453 25.6634 87.6431 25.8889C86.5901 26.19 86.289 31.9831 88.0948 33.5626C90.2016 35.3684 96.0696 34.8418 97.7248 36.6507C93.7374 39.7387 79.5178 40.7886 76.4336 38.4564C77.5615 36.7255 83.0536 35.9736 83.9568 34.093C85.1604 31.5346 83.5808 26.8701 82.3016 26.6447C81.7751 26.5675 81.9257 27.2461 82.1472 27.7733C82.8999 29.5783 82.8706 31.97 82.2244 33.1897C81.9874 33.6352 80.4187 34.2428 79.368 34.6195C76.5116 35.6725 75.0038 36.7255 74.6279 37.7793C57.1712 44.5452 44.0047 59.8201 50.8516 70.5788C50.0434 70.5298 49.2336 70.6444 48.4708 70.916C47.708 71.1876 47.0079 71.6104 46.4125 72.1591C39.1148 74.0397 33.3216 79.0802 31.9675 84.6479C30.7632 89.5386 34.3746 95.0306 39.6413 95.0306C40.069 95.78 40.6607 96.4229 41.3721 96.9112C40.1686 96.7568 22.0364 94.7295 15.9422 94.579C10.1521 94.4246 7.59062 94.8052 6.61325 97.4354C5.03296 101.874 7.8917 128.809 11.1272 134.301C14.138 139.342 21.9615 141.072 29.4099 143.179C36.7361 145.281 44.2886 146.494 51.9046 146.791C53.989 146.896 56.0708 146.536 57.9988 145.737C80.0427 135.656 86.8897 133.098 88.7703 128.658C90.4255 124.671 84.8577 121.737 65.224 117.599C62.5151 116.997 61.5369 118.276 63.1172 118.652C71.3183 120.383 87.4185 124.219 87.0417 127.154C86.5909 130.991 74.8541 135.731 60.4847 142.426C61.3879 139.041 60.514 133.387 59.8833 124.67C59.6517 121.428 59.2811 116.921 58.9052 112.708C67.8659 115.966 70.073 105.528 68.4595 96.1554C67.8581 92.9207 66.2778 92.8458 66.5789 94.4254C67.7076 99.9182 67.256 109.248 63.8707 110.902C61.9145 111.88 59.5822 110.902 58.679 110.451C58.2274 106.162 57.5735 102.382 56.4216 100.896C55.7278 100.113 54.8482 99.5184 53.864 99.1655C56.4167 98.4051 58.7598 97.0662 60.7109 95.253C61.689 97.2841 62.6625 98.876 63.2686 99.0898C63.9417 99.3284 64.6983 99.2442 64.171 97.8863C63.7202 96.6827 63.3434 96.0057 62.2904 93.4472C63.7039 91.6614 64.7531 89.6155 65.3784 87.4256C68.6564 77.1077 59.7351 66.5852 54.9957 72.7574C43.3338 62.5252 57.1025 46.9515 74.8579 39.6538C76.2877 41.0079 79.8235 41.61 83.6588 41.5351C87.5713 41.4579 97.2763 41.0079 99.082 37.3972C109.54 38.5259 120.524 44.3182 127.07 49.1317C126.394 49.9601 126.022 50.9957 126.017 52.0653C123.233 51.3126 119.321 53.1183 119.17 56.58C119.093 58.3857 120.751 64.5549 122.631 67.8652C116.687 68.2412 115.483 73.5078 120.599 76.8931C122.781 78.3228 126.092 79.602 131.133 79.602C132.562 85.0941 133.314 88.6299 133.541 91.1883C128.349 86.0722 123.158 78.6239 117.967 88.931C115.258 94.4987 120.751 100.592 127.446 104.053C131.133 106.009 135.722 106.537 138.581 106.611C149.566 106.987 150.769 96.0033 143.922 75.8401C149.712 71.7824 151.893 65.3894 149.712 59.0682ZM35.3528 90.8927C34.5922 90.1267 34.0461 89.1746 33.7689 88.1314C33.4917 87.0883 33.4932 85.9906 33.7732 84.9482C34.9768 80.6597 39.0399 76.5974 44.6068 74.5655C42.9516 78.7034 43.5538 85.5504 46.1115 89.4652C45.632 90.1993 45.0196 90.8374 44.3057 91.3466C42.5391 90.3496 41.1014 88.8593 40.1685 87.0581C39.9424 86.6065 39.4907 86.1548 39.1904 86.6065C38.5134 87.5846 39.8667 90.7444 42.3502 92.3965C38.5134 94.203 36.5571 92.1711 35.3528 90.8927ZM54.9147 101.952C56.8702 103.909 56.8702 110.529 57.4723 117.752C57.924 123.469 59.278 135.056 58.6759 140.699C58.5215 142.203 57.9239 144.987 52.3562 144.837C40.9205 144.536 14.8135 138.366 12.7824 133.25C11.2777 130.768 9.92594 123.469 9.17091 117.075C8.41898 110.98 7.36519 100.372 8.49386 97.5883C8.94549 96.6858 10.2255 96.1685 14.1365 96.0836C17.5997 96.0064 30.4629 97.3628 37.6827 98.341C52.4311 100.297 53.5598 100.523 54.9147 101.952ZM54.3125 74.3447C54.0863 79.7611 57.6985 82.0941 59.8046 82.0941C59.9731 82.084 60.1332 82.0166 60.2582 81.9031C60.3833 81.7897 60.4658 81.6369 60.4922 81.4701C60.5186 81.3033 60.4872 81.1325 60.4033 80.986C60.3194 80.8395 60.188 80.726 60.0308 80.6643C55.7415 78.9343 54.9895 71.9406 59.0526 72.84C62.363 73.5171 65.522 79.084 63.5665 86.8342C61.5346 94.809 52.733 97.9681 48.8212 97.7427C47.4999 97.7281 46.196 97.4398 44.9917 96.896C43.7875 96.3521 42.709 95.5645 41.8245 94.5828C44.021 94.0478 45.9945 92.8373 47.4671 91.1219C48.4184 91.978 49.6483 92.4595 50.928 92.4768C55.2929 92.3996 56.495 89.0908 55.8928 85.0285C55.3663 81.8679 53.6362 81.7181 53.8616 83.1471C54.3133 86.0807 54.6259 89.818 52.1316 90.37C51.6288 90.5311 51.0956 90.5742 50.5734 90.4958C50.0513 90.4175 49.5542 90.2199 49.1207 89.9184C45.886 88.0378 43.8016 77.2243 47.3907 73.7425C48.6514 72.5158 51.2276 71.6318 54.3125 74.3447ZM133.837 48.8399C137.222 50.5699 137.523 54.6299 138.351 58.4699C135.998 58.5067 133.684 59.0724 131.58 60.1251C130.977 58.6204 129.666 55.6644 128.569 53.5792C127.411 51.3697 129.852 47.3306 133.837 48.836V48.8399ZM119.617 71.6318C119.993 69.6764 124.011 69.0333 129.999 71.4064C131.195 71.8797 132.558 69.3753 125.034 67.8706C123.454 64.937 121.122 58.8381 121.273 56.5854C121.427 54.6292 123.304 54.027 123.905 53.8765C125.109 53.5754 126.389 53.8765 126.762 54.4786C127.886 56.5402 128.867 58.6768 129.697 60.8731C129.227 61.061 128.813 61.3678 128.497 61.7635C128.18 62.1591 127.972 62.6302 127.892 63.1305C127.892 63.5072 128.118 64.3341 129.02 63.657C132.858 60.6462 138.576 59.5947 142.563 60.8006C143.089 60.9511 143.617 60.8778 143.541 60.2741C143.465 59.6704 142.639 58.6189 140.306 58.3178C139.102 52.5278 138.726 50.7189 140.833 50.343C144.143 49.6659 145.648 52.7509 147.679 59.4465C149.334 64.788 148.883 73.0639 137.597 76.6005C126.614 79.9803 119.091 74.1131 119.617 71.6318ZM144.445 103.005C139.78 109.027 115.855 99.9946 119.993 89.4629C123.605 80.2088 129.247 90.0651 133.837 93.9019C133.784 94.5854 133.683 95.2644 133.536 95.9339C133.381 96.5353 133.767 97.2223 134.213 96.9869C135.583 96.2643 136.545 91.5697 133.385 79.3813C136.572 79.1558 139.674 78.2583 142.489 76.7479C147.531 90.9675 147.608 98.8675 144.443 103.005H144.445Z" fill="#001434"/>
<path d="M62.2871 108.422C64.9953 108.272 65.1435 104.811 64.2433 104.735C63.4157 104.658 63.7917 106.541 61.8354 107.068C60.7824 107.368 60.557 108.497 62.2871 108.422Z" fill="#001434"/>
<path d="M95.3907 95.4067C93.585 95.4839 90.2746 102.855 89.3691 102.704C88.7669 102.554 88.0899 97.8146 86.3582 97.7389C84.402 97.6617 82.9738 100.664 82.5206 100.595C81.9207 100.508 81.1665 99.6172 80.64 99.0158C80.1135 98.3388 79.4364 99.1702 79.8881 99.994C81.0167 101.95 81.8435 102.627 82.5963 102.627C84.026 102.55 85.079 99.8434 85.9815 99.9191C86.884 99.9947 86.8091 105.11 89.217 105.26C91.4736 105.337 95.007 97.6617 95.6872 97.6617C96.5897 97.6617 96.9664 99.9191 97.418 101.649C97.5686 102.176 97.9445 102.552 98.3954 102.401C99.4538 102.178 98.1746 95.2562 95.3907 95.4067Z" fill="#001434"/>
<path d="M79.1404 91.419C76.8831 92.4728 76.9587 95.9337 76.8082 98.7924C76.6576 102.027 76.5071 105.488 78.6888 107.068C82.1497 109.475 89.6737 110.156 95.0152 110.303C102.012 110.529 102.859 107.667 103.065 100.597C103.158 97.4322 103.065 94.5757 101.034 92.9236C99.3037 91.4947 82.1497 89.9892 79.1404 91.419ZM99.9074 107.219C98.1766 109.325 82.9788 107.67 79.7434 105.413C78.2395 104.359 78.6155 94.2777 80.195 93.4471C82.9788 91.9424 98.5525 93.8987 99.4558 94.4252C101.636 95.7075 101.335 105.413 99.9059 107.219H99.9074Z" fill="#001434"/>
<path d="M84.256 25.5877C91.0273 25.5877 90.3502 16.1082 84.0306 16.4093C78.1618 16.6347 78.2374 25.5877 84.256 25.5877ZM84.1055 18.2899C88.0929 18.1355 88.0929 23.2555 84.5571 23.5566C80.87 23.8553 80.494 18.4405 84.1055 18.2899Z" fill="#001434"/>
<path d="M122.701 133.927C122.1 135.958 121.723 137.688 121.046 139.419C120.946 139.672 120.783 139.894 120.572 140.065C120.362 140.237 120.11 140.351 119.843 140.397C116.683 140.474 116.532 140.243 116.231 139.57C116.081 139.043 116.006 138.14 115.178 137.99C112.846 137.538 110.739 136.711 109.388 138.14C108.335 139.194 106.83 138.217 106.532 137.839C106.234 137.462 106.832 136.485 107.961 134.906C109.089 133.401 108.262 133.1 106.682 134.605C105.102 136.185 103.594 138.442 105.478 139.42C107.81 140.623 108.489 140.623 110.368 139.343C111.572 138.516 113.152 139.117 114.581 139.42C114.581 141.601 115.334 141.978 118.645 141.978C120.45 141.978 121.278 142.204 121.804 141.601C122.481 140.85 123.084 136.411 123.384 135.056C123.753 133.776 123.153 132.573 122.701 133.927Z" fill="#001434"/>
<path d="M65.3718 133.171C73.8731 129.109 77.1835 128.055 79.8168 127.002C81.0211 126.551 81.2466 125.046 73.271 128.206C72.1431 128.657 69.0581 129.862 67.6284 130.539C64.0926 132.121 64.694 133.551 65.3718 133.171Z" fill="#001434"/>
<path d="M115.705 79.757C106.075 85.1742 88.9207 88.7857 71.0148 83.5947C70.4883 83.4441 70.4126 83.9706 70.7894 84.3466C72.8205 86.3029 83.5792 88.0337 89.3724 88.0337C100.732 88.1109 110.362 84.7982 115.852 80.5854C116.833 79.8327 116.833 79.08 115.705 79.757Z" fill="#001434"/>
<path d="M112.696 126.704C108.257 127.232 100.807 134.98 99.7552 139.194C99.153 141.526 99.3784 143.256 100.357 144.535C102.914 148.072 116.984 149.651 121.201 148.974C125.941 148.147 128.95 132.874 127.37 130.015C125.862 127.381 116.532 126.253 112.696 126.704ZM120.897 145.965C118.564 146.567 104.001 145.544 102.163 142.877C101.545 141.984 101.335 141.298 101.711 139.567C102.54 136.106 109.536 127.98 114.125 128.055C119.092 128.133 124.884 129.711 125.561 130.912C126.687 133.326 123.454 145.292 120.897 145.965Z" fill="#001434"/>
<path d="M62.5126 100.372C62.281 100.001 61.6719 100.145 61.6101 100.824C61.5309 101.403 61.2919 101.95 60.9198 102.401C60.5477 102.853 60.0573 103.192 59.5033 103.381C58.7514 103.682 58.8263 104.359 59.6577 104.359C60.1522 104.407 60.6506 104.324 61.1029 104.119C61.5552 103.913 61.9455 103.593 62.2347 103.189C62.5239 102.785 62.7018 102.312 62.7506 101.818C62.7994 101.323 62.7173 100.825 62.5126 100.372Z" fill="#001434"/>
<path d="M22.4879 99.3936C21.1331 99.2438 14.8883 101.199 14.0615 103.457C13.4593 105.488 15.7167 110.152 17.8984 110.152C22.3374 109.551 28.8825 107.064 25.4972 101.876C25.1205 101.274 23.9918 99.5441 22.4879 99.3936ZM24.8202 105.638C24.3686 106.617 18.8757 108.949 17.8227 108.649C16.8453 108.273 15.2126 104.971 15.5661 103.985C16.0479 102.641 21.3562 100.825 22.3374 100.897C23.4692 100.901 25.4223 104.886 24.8202 105.638Z" fill="#001434"/>
<path d="M33.9985 121.965C32.9454 123.695 28.054 127.081 28.958 128.811C29.334 130.316 33.0203 129.714 34.9025 129.714C35.429 131.671 35.3533 136.711 37.3096 136.485C39.1153 136.711 40.3976 132.047 41.2978 130.316C53.1095 132.047 54.3131 130.165 45.059 122.416C47.8429 115.043 47.4669 112.033 40.0934 117.751C34.149 111.582 33.0952 115.269 33.9985 121.965ZM37.9859 117.902C40.3938 121.363 42.6503 117.074 45.2844 116.323C45.3616 117.827 43.2525 121.664 43.6292 122.793C43.8547 124.147 49.5737 127.833 49.6509 129.263C48.4466 130.015 41.4499 128.285 40.4717 128.962C39.4187 129.488 38.3657 133.852 37.3837 134.829C36.3299 133.023 37.6153 128.059 34.6747 128.133C33.2735 128.248 31.8664 128.273 30.4619 128.211C31.0641 126.705 35.4274 123.621 35.578 122.266C35.9547 120.084 33.6225 113.012 37.9828 117.902H37.9859Z" fill="#001434"/>
<path d="M139.78 84.1211C141.286 83.6695 142.548 82.3262 142.112 81.6383C141.881 81.2678 141.286 81.4121 140.984 81.7155C140.307 82.4675 138.502 83.1445 136.771 83.1445C135.492 83.0681 135.642 85.3247 139.78 84.1211Z" fill="#001434"/>
<path d="M129.924 93.3753C128.42 93.9767 127.291 97.6638 128.495 99.0928C128.796 99.4695 129.548 99.4695 129.398 98.0398C129.452 96.7469 129.869 95.4954 130.601 94.4283C131.128 93.9018 130.977 92.9237 129.924 93.3753Z" fill="#001434"/>
<path d="M125.485 89.237C122.175 90.1395 121.73 94.4095 122.776 94.7291C123.686 95.0101 123.378 92.3219 125.633 90.8922C127.442 89.7635 126.614 88.9352 125.485 89.237Z" fill="#001434"/>
<path d="M66.2744 54.3279C64.4686 58.5408 64.8446 74.8672 69.2852 78.7041C77.1851 85.551 110.439 82.165 114.276 74.7923C117.813 67.9454 116.158 53.5752 113.148 49.4373C107.955 42.29 70.0364 45.6004 66.2744 54.3279ZM74.0994 63.4315C71.8421 63.1304 71.6159 57.0361 76.5065 56.2086C80.6445 55.5315 84.1054 59.5946 83.2778 61.7014C82.6757 63.2053 76.356 63.7325 74.0994 63.4315ZM99.6042 71.5568C98.4373 72.7244 97.0352 73.6301 95.4911 74.2139C93.9471 74.7977 92.2964 75.0462 90.649 74.9429C87.4884 74.7885 79.8146 73.8891 81.3949 69.8268C82.749 66.3659 87.94 70.7292 90.649 70.4282C96.0654 69.8268 97.3832 64.5177 100.053 66.9672C101.506 68.299 102.273 69.1127 99.6042 71.5568ZM107.579 60.7981C105.472 61.6257 99.378 62.4533 98.2494 61.3246C96.5193 59.6695 98.5504 54.8545 102.688 54.4785C108.632 53.8763 109.685 59.9705 107.579 60.7981Z" fill="#001434"/>
<path d="M72.9711 111.733C78.7611 115.796 88.6196 118.654 99.83 118.729C111.266 118.807 121.347 113.914 125.109 107.745C126.539 105.413 126.087 104.889 124.959 106.315C121.35 110.898 116.322 114.153 110.664 115.57C98.0999 118.955 81.6986 116.096 71.1653 108.723C69.7356 107.745 70.1115 109.702 72.9711 111.733Z" fill="#001434"/>
<path d="M139.329 102.103C138.725 101.768 138.195 101.316 137.768 100.773C137.342 100.231 137.028 99.6079 136.846 98.9421C136.696 98.3407 136.319 97.5131 135.718 98.1153C135.266 98.5661 135.191 100.447 136.244 101.726C136.594 102.187 137.035 102.572 137.54 102.857C138.044 103.142 138.602 103.32 139.178 103.381C140.082 103.457 140.457 102.629 139.329 102.103Z" fill="#001434"/>
<path d="M138.049 88.4846C137.147 88.3341 136.921 89.9893 139.554 90.0649C142.714 90.2193 143.993 88.5603 143.843 87.7327C143.765 87.2811 143.165 87.1305 142.714 87.5822C141.962 88.4846 139.554 88.7857 138.049 88.4846Z" fill="#001434"/>
<path d="M16.4686 118.88C10.9766 120.535 12.7066 128.134 17.8227 128.209C25.1962 128.285 23.4692 116.623 16.4686 118.88ZM18.8765 126.479C14.8134 127.608 12.7066 121.664 16.9202 120.385C21.0597 119.003 22.9828 125.367 18.8765 126.479Z" fill="#001434"/>
<path d="M137.824 94.0523C137.448 93.8979 137.016 94.6344 137.901 95.557C138.751 96.4417 140.084 96.7605 141.814 96.7605C144.071 96.7605 145.425 95.4064 145.049 94.7294C144.597 93.9018 141.887 95.6318 137.824 94.0523Z" fill="#001434"/>
</svg>
