<svg width="155" height="155" viewBox="0 0 155 155" fill="none" xmlns="http://www.w3.org/2000/svg">
<path d="M34.4672 128.316C36.4984 130.843 41.7241 130.49 41.7241 130.49C41.7241 130.49 40.3545 117.567 44.4315 115.611C46.9367 114.408 49.712 115.242 54.9702 115.656C57.0839 115.822 55.8047 126.285 55.8726 130.077C55.9028 132.047 67.9831 131.466 71.9397 129.497C75.8962 127.527 75.5804 107.63 71.1128 105.231C66.6452 102.832 40.0388 104.584 36.4358 106.983C32.8329 109.383 32.4438 125.781 34.4672 128.316Z" fill="#3D9CFB"/>
<path d="M77.0573 85.1249C77.0376 85.0036 76.9938 84.8875 76.9283 84.7834C76.8629 84.6794 76.7772 84.5897 76.6764 84.5194C76.5756 84.4492 76.4616 84.4 76.3414 84.3747C76.2211 84.3494 76.097 84.3485 75.9765 84.3721C72.0508 84.9666 60.6776 85.5834 60.6621 87.5088C60.6544 88.9532 61.8279 88.2615 72.998 86.9074C76.0946 86.5307 77.2603 86.5423 77.0573 85.1249Z" fill="#3D9CFB"/>
<path d="M39.4395 91.3078C52.7952 89.6148 52.904 89.5477 53.3356 88.3063C53.7417 87.1405 52.2748 87.095 40.5928 89.0281C37.7017 89.5098 38.3409 91.4429 39.4395 91.3078Z" fill="#3D9CFB"/>
<path d="M128.925 22.9623C129.889 24.3689 131.047 26.5961 131.686 27.145C132.43 27.7843 133.334 27.0624 133.026 26.0689C131.62 22.6086 129.342 19.5715 126.413 17.2533C125.45 16.5585 124.465 17.8478 125.39 18.9008C126.349 19.9955 127.049 20.2472 128.925 22.9623Z" fill="#3D9CFB"/>
<path d="M117.683 27.0692C117.601 24.4969 116.42 23.5489 114.54 23.2408C111.838 22.7969 92.5977 23.2709 90.2986 25.8657C88.1247 28.3183 89.7273 34.3878 91.4644 36.4491C93.0192 38.2919 98.9613 38.4463 102.677 38.5104C103.888 38.5258 106.923 41.9782 108.763 42.8583C111.11 43.9715 110.214 39.5479 110.47 38.2695C118.349 38.1722 117.872 33.1966 117.683 27.0692ZM109.553 36.4645C108.1 36.419 109.304 40.1424 108.484 40.3006C107.664 40.4589 105.164 36.6823 103.362 36.6452C96.2006 36.4908 93.5905 36.0809 92.8764 35.2455C91.5292 33.6359 90.6947 28.7993 91.6875 27.0993C92.1159 26.3698 114.968 23.6917 115.311 26.7311C115.961 32.9442 114.938 36.6452 109.553 36.4645Z" fill="#3D9CFB"/>
<path d="M128.237 60.6553C131.156 57.7595 134.999 50.3498 133.126 49.9592C131.428 49.5979 131.66 51.2716 126.65 59.1059C125.589 60.768 127.072 61.8133 128.237 60.6553Z" fill="#3D9CFB"/>
<path d="M135.586 42.4744C136.127 38.6761 135.504 31.2293 133.826 31.9056C132.128 32.5827 134.127 36.4605 133.594 42.3764C133.39 44.6484 135.277 44.6028 135.586 42.4744Z" fill="#3D9CFB"/>
<path d="M16.1351 99.4611C20.2345 96.8363 21.8595 95.4675 29.3364 93.2557C29.4572 93.2273 29.5707 93.1741 29.6699 93.0996C29.769 93.025 29.8516 92.9307 29.9124 92.8226C29.9733 92.7145 30.011 92.5949 30.0232 92.4714C30.0354 92.348 30.0218 92.2234 29.9834 92.1054C29.1033 90.0812 18.106 94.9703 15.3152 97.8144C14.466 98.6713 15.1315 100.108 16.1351 99.4611Z" fill="#3D9CFB"/>
<path d="M35.8436 139.644C32.2484 140.246 25.8847 140.863 22.5072 139.366C22.3953 139.314 22.2741 139.285 22.1507 139.28C22.0273 139.276 21.9044 139.297 21.7891 139.341C21.6739 139.385 21.5687 139.452 21.4798 139.538C21.391 139.623 21.3203 139.726 21.272 139.84C20.0314 142.928 31.6601 143.037 36.1355 141.765C37.9829 141.246 37.9505 139.29 35.8436 139.644Z" fill="#3D9CFB"/>
<path d="M105.506 9.72795C103.768 9.83371 103.618 11.4804 105.551 11.5638C110.126 11.6226 114.64 12.6319 118.804 14.5275C119.029 14.6283 119.285 14.6375 119.517 14.5532C119.748 14.4689 119.938 14.2977 120.046 14.0759C121.091 11.9583 109.921 9.45311 105.506 9.72795Z" fill="#3D9CFB"/>
<path d="M9.71235 105.351C7.69664 104.343 5.37212 113.106 5.77897 117.063C5.93337 118.628 7.86957 118.529 8.01239 116.589C8.66705 107.803 11.4054 106.194 9.71235 105.351Z" fill="#3D9CFB"/>
<path d="M16.429 137.689C16.5015 137.589 16.5532 137.476 16.5812 137.356C16.6091 137.236 16.6127 137.112 16.5917 136.99C16.5706 136.869 16.5254 136.753 16.4588 136.649C16.3921 136.546 16.3053 136.457 16.2036 136.387C12.6454 133.875 11.089 130.618 8.98222 126.609C8.29745 125.307 6.73336 125.743 7.2066 127.662C8.2905 132.04 14.7221 139.915 16.429 137.689Z" fill="#3D9CFB"/>
<path d="M144.312 109.085C149.176 99.2314 142.108 96.9146 142.108 96.9146C145.869 85.7892 134.578 78.0112 123.271 79.1584C115.208 67.0333 97.6136 74.1265 93.7173 80.0987C93.7173 80.0987 111.131 85.4472 120.3 81.7972C123.061 89.1613 130.192 94.5924 133.501 95.6524C143.791 97.7136 133.652 112.044 131.605 113.541C131.605 113.541 142.302 120.175 145.453 128.81C149.066 125.119 153.233 114.643 144.312 109.085Z" fill="#3D9CFB"/>
<path d="M123.017 52.6512C122.477 49.5631 112.553 47.7921 111.267 50.7983C110.606 52.3478 110.666 54.1303 111.53 55.0861C113.727 57.5148 123.927 57.819 123.017 52.6512ZM112.854 51.7942C113.569 49.6133 121.347 52.0652 121.257 53.2688C121.159 54.6151 119.496 54.7502 116.744 54.7279C113.156 54.69 112.042 54.2538 112.854 51.7942Z" fill="#3D9CFB"/>
<path d="M84.9854 18.5999C86.4753 18.051 90.3261 14.3723 96.3516 12.65C96.4701 12.6185 96.5811 12.5639 96.6782 12.4892C96.7754 12.4145 96.8568 12.3213 96.9176 12.215C96.9785 12.1087 97.0177 11.9913 97.0329 11.8697C97.0482 11.7481 97.0391 11.6247 97.0063 11.5067C96.3516 9.27246 86.9192 13.8381 84.0366 16.6143C82.8415 17.7653 83.5564 19.1186 84.9854 18.5999Z" fill="#3D9CFB"/>
<path d="M117.48 41.5566C113.216 40.9019 111.387 47.0479 116.24 47.9951C120.948 48.9208 121.768 42.2112 117.48 41.5566ZM118.165 45.7617C117.375 46.7846 114.938 46.0396 115.217 44.7457C115.735 42.3394 119.782 43.6626 118.165 45.7617Z" fill="#3D9CFB"/>
<path d="M116.856 101.703C127.959 105.177 130.306 94.2413 121.535 90.6005C112.591 86.8918 107.772 98.8594 116.856 101.703ZM124.129 94.3385C124.779 94.98 125.18 95.8321 125.258 96.7419C125.337 97.6517 125.089 98.5598 124.559 99.3033C123.032 101.733 116.954 101.281 114.368 98.0017C117.902 97.3779 121.625 96.2693 124.129 94.3393V94.3385Z" fill="#001434"/>
<path d="M8.77964 86.1399C9.55165 86.5684 10.5097 85.0792 9.75777 84.5751C1.47568 79.0166 7.16228 67.628 16.9714 66.2214C13.6919 75.4082 23.982 83.2511 35.6409 82.8303C65.7893 81.7318 49.4436 52.0496 27.9308 59C24.8243 53.3057 18.6112 58.0072 17.8947 64.2358C5.24462 64.9128 -1.2773 80.5884 8.77964 86.1399ZM18.9794 66.0484C19.3796 65.5616 19.6442 64.9779 19.7468 64.3562C20.3567 60.3695 24.07 55.9537 26.2533 59.8199C25.4488 60.527 23.0108 61.2573 23.8392 62.6863C23.9137 62.7838 24.0069 62.8655 24.1133 62.9266C24.2197 62.9878 24.3372 63.0272 24.4589 63.0425C24.5807 63.0579 24.7042 63.0489 24.8225 63.0162C24.9407 62.9834 25.0513 62.9274 25.1477 62.8515C29.5443 59.2131 35.7837 59.1359 40.6357 60.9887C38.3969 61.5608 33.7904 62.8021 35.1375 64.3214C36.0392 65.3444 40.7261 62.3729 43.3061 62.2C45.1353 63.1657 46.776 64.4526 48.1497 65.999C47.3453 66.4422 41.4031 68.0302 43.2382 69.7448C43.8774 70.3392 46.7732 68.4887 49.3841 67.6835C57.071 83.9845 20.8747 86.3877 18.0321 70.3392C17.8686 69.5982 17.8686 68.8303 18.0322 68.0893C18.1958 67.3482 18.519 66.6517 18.9794 66.0484Z" fill="#001434"/>
<path d="M105.49 97.4381C106.363 97.6033 106.619 96.5649 106.129 95.8431C105.325 94.6619 104.332 91.428 107.551 91.8186C108.062 91.8788 108.642 91.5932 108.642 91.0744C108.642 89.6076 104.963 89.3513 103.79 91.4874C102.647 93.5672 103.7 97.0914 105.49 97.4381Z" fill="#001434"/>
<path d="M43.7573 50.3276C41.4552 50.9452 39.7252 49.4174 39.2511 50.7337C38.5818 52.5865 45.2465 53.1339 44.8629 51.0572C44.8411 50.9352 44.7948 50.8189 44.7267 50.7153C44.6586 50.6118 44.5702 50.5232 44.4668 50.455C44.3633 50.3868 44.2471 50.3403 44.1251 50.3184C44.0032 50.2965 43.8781 50.2996 43.7573 50.3276Z" fill="#001434"/>
<path d="M104.535 106.269C108.643 107.277 111.516 103.749 109.94 101.974C109.218 101.154 107.044 102.124 104.535 101.267C98.3602 99.1306 99.2032 104.952 104.535 106.269Z" fill="#001434"/>
<path d="M137.038 76.7521C131.66 63.4589 111.116 59.6761 100.014 66.2382C92.3343 72.2174 90.9817 77.7241 89.9009 80.65C81.7624 79.8525 76.8879 99.1998 86.1096 100.342C86.2144 101.849 86.4947 103.339 86.9449 104.781C84.4824 105.685 82.2521 107.127 80.416 109C77.2508 95.5891 77.091 97.5292 50.327 96.8977C42.2565 96.7023 28.7239 97.0258 25.798 100.155C23.323 102.803 22.8945 112.107 23.3909 120.261C23.9097 128.724 25.3696 133.072 27.637 134.2C30.4054 135.568 36.8817 135.952 40.7858 136.284C40.853 140.737 41.9932 149.13 46.0964 149.049C52.8499 148.916 72.5886 149.103 73.0549 149.102C83.7318 149.06 103.579 150.44 111.124 147.394C129.335 147.717 153.27 148.079 146.538 128.988C148.983 126.152 151.142 121.135 150.389 116.237C150.178 114.724 149.643 113.273 148.82 111.986C147.997 110.698 146.905 109.603 145.621 108.776C147.705 105.579 147.892 98.9821 143.499 96.6352C147.004 90.3595 144.485 81.3695 137.038 76.7521ZM101.067 67.7706C107.569 63.0614 128.071 63.8967 134.254 75.4281C131.36 74.4141 128.279 74.0496 125.228 74.3605C114.374 65.4916 102.512 68.2824 96.253 72.6451C97.5922 70.7778 99.2168 69.1329 101.067 67.7706ZM93.9439 77.474C98.6979 71.186 111.688 65.8753 124.333 76.045C128.696 76.2403 132.968 76.3306 135.503 78.046C137.067 82.1824 137.413 87.7339 135.164 95.1359C130.749 94.3462 122.207 86.9334 121.227 81.6258C121.197 81.4804 121.133 81.3441 121.041 81.2278C120.949 81.1114 120.831 81.0184 120.696 80.9562C120.561 80.894 120.414 80.8643 120.266 80.8696C120.117 80.8749 119.972 80.915 119.842 80.9866C112.161 85.5561 98.4725 80.7982 93.1163 78.6768C93.3873 78.2491 93.6652 77.8576 93.9439 77.474ZM137 100.228C137.391 104.474 133.961 114.37 129.335 112.362C123.34 108.36 133.179 88.7947 137 100.228ZM92.3721 94.2481C95.7867 95.3166 100.413 95.6702 102.052 91.6758C105.046 84.4097 94.6657 81.1603 90.95 82.7167C91.3086 81.889 91.705 81.0783 92.1382 80.2872C98.2015 82.7398 111.192 87.0499 119.699 83.1436C121.278 87.7471 126.973 93.148 131.373 95.6231C128.053 97.4203 125.874 102.566 125.671 106.484C122.727 107.553 119.61 108.068 116.479 108.004C112.56 104.13 109.017 105.702 108.348 108.289C107.671 110.907 109.958 114.503 115.17 112.593C118.425 113.902 121.917 114.52 125.423 114.405C109.928 124.199 82.1862 112.856 88.3615 91.6133C89.3825 92.8975 90.7881 93.8209 92.3721 94.2481ZM90.7107 91.367C93.8628 90.7432 97.5414 89.5242 99.8351 87.0878C103.038 91.6681 96.8628 95.9334 90.7107 91.367ZM126.952 112.443C123.465 112.777 119.947 112.354 116.639 111.201C116.86 110.801 116.988 110.357 117.015 109.901C119.966 109.898 122.896 109.413 125.689 108.463C125.783 109.872 126.216 111.238 126.95 112.444L126.952 112.443ZM115.09 110.096C114.21 112.518 109.027 111.043 110.103 108.411C110.883 106.501 115.81 108.127 115.088 110.097L115.09 110.096ZM86.0015 98.4679C80.3898 96.5726 83.3767 83.0857 89.0633 82.4874C87.0123 87.5642 85.9722 92.9926 86.0015 98.4679ZM40.7178 134.406C35.4821 133.963 30.0641 133.436 28.6298 132.623C27.7034 132.097 25.7039 128.306 25.4553 123.432C24.9519 113.533 24.8377 103.107 27.6825 101.264C32.1354 98.383 46.1559 98.9775 51.3993 98.925C64.3297 98.7891 73.9281 99.2855 75.1085 100.76C79.3885 106.101 81.337 129.015 76.5753 132.435C73.5444 134.609 65.3974 134.64 57.0257 134.572C56.1302 130.201 58.5003 115.947 55.4609 114.857C51.783 113.541 45.9158 114.142 44.1324 115.075C40.5673 116.959 40.8005 123.84 40.7178 134.406ZM46.0964 147.186C44.7122 146.471 42.9142 143.305 42.7413 136.384C42.5305 127.84 42.7189 117.685 44.8257 116.451C47.398 114.946 52.4531 115.052 54.4688 116.436C56.8621 118.076 53.7841 133.985 55.8986 137.686C57.7182 142.009 67.3915 144.275 71.4615 147.231C66.5469 147.226 51.7599 147.211 46.0964 147.189V147.186ZM73.8115 147.246C73.1167 145.625 70.5992 144.395 67.417 142.989C73.3074 142.951 82.8679 142.861 88.1407 142.846C87.7431 143.549 87.5777 144.359 87.6681 145.162C87.7585 145.964 88.1001 146.718 88.6441 147.314C84.3988 147.354 78.8218 147.361 73.8153 147.249L73.8115 147.246ZM75.496 141.063C67.7026 140.891 60.6403 142.77 57.4202 136.445C81.1 136.844 82.7699 135.226 80.792 111.592C81.1602 110.893 82.7621 108.485 87.6366 106.507C89.8708 111.126 94.1052 114.902 99.5363 117.249C96.2568 120.679 92.3227 125.123 90.7208 117.211C90.5926 116.714 90.0213 116.24 89.5844 116.534C88.0959 117.534 90.2792 123.417 93.3834 123.612C97.3322 123.86 100.319 117.745 101.703 118.181C102.417 118.407 102.62 126.287 106.18 127.059C103.787 128.113 101.675 129.12 99.4336 130.147C93.3255 129.132 87.9693 131.088 90.0839 137.917C89.481 138.858 89.067 139.907 88.8649 141.006C85.6317 140.99 80.5094 141.028 75.5022 141.066L75.496 141.063ZM93.2522 147.261C89.3335 147.442 87.9253 143.29 91.631 142.861C97.1894 142.875 101.808 142.891 105.163 143.041C115.156 143.207 114.08 147.903 93.2583 147.263L93.2522 147.261ZM112.885 145.418C112.802 142.854 111.222 141.688 106.521 141.236C106.971 140.358 107.62 139.598 108.417 139.018C108.624 138.885 108.77 138.677 108.824 138.437C108.879 138.198 108.837 137.947 108.707 137.738C108.578 137.529 108.371 137.38 108.132 137.323C107.894 137.265 107.642 137.304 107.432 137.43C106.11 138.348 105.092 139.638 104.506 141.136C102.453 141.069 100.399 141.031 98.3451 141.023C99.0081 139.977 99.8744 139.074 100.893 138.368C101.091 138.228 101.226 138.016 101.271 137.778C101.316 137.539 101.266 137.293 101.132 137.091C100.998 136.888 100.79 136.746 100.553 136.694C100.316 136.642 100.069 136.684 99.8621 136.811C98.3151 137.861 97.0825 139.312 96.2962 141.009C94.6117 140.993 92.6863 141.001 90.7678 140.979C91.1816 136.939 97.1091 135.321 96.4035 134.005C95.8091 132.899 92.4238 135.502 91.5213 136.104C90.8219 131.29 95.8917 131.643 100.074 131.914C104.369 129.349 113.044 130.56 116.66 135.585C120.124 140.479 119.083 144.924 112.892 145.421L112.885 145.418ZM144.545 139.265C141.439 143.666 132.923 145.742 117.955 145.682C125.366 139.356 115.292 128.788 106.905 128.775C107.627 128.369 112.02 126.894 113.862 125.764C115.112 124.996 114.66 123.281 112.825 124.146C105.897 127.434 105.002 124.041 104.295 118.844C112.516 121.047 122.746 119.55 128.802 114.247C129.216 114.478 129.673 114.623 130.145 114.672C130.617 114.721 131.094 114.674 131.548 114.533C143.371 121.155 148.261 133.197 144.552 139.27L144.545 139.265ZM143.552 108.508C143.471 108.615 143.414 108.738 143.385 108.869C143.355 109 143.354 109.136 143.381 109.267C143.408 109.399 143.462 109.523 143.541 109.632C143.62 109.74 143.721 109.831 143.838 109.897C150.305 113.182 149.367 122.527 145.704 127.032C144.29 124.016 140.416 117.043 133.533 113.417C137.437 110.002 141.529 100.344 136.843 95.996C138.927 89.2864 139.024 83.9526 137.994 79.7491C143.131 83.9465 144.222 91.0088 141.931 95.7636C141.757 96.1405 141.71 96.5641 141.798 96.97C141.886 97.3758 142.105 97.7418 142.42 98.0124C145.909 101.026 145.929 105.117 143.559 108.51L143.552 108.508Z" fill="#001434"/>
<path d="M31.9023 39.1728C36.5583 38.9242 38.679 37.3069 39.3414 33.7116C40.1906 29.1074 36.7691 26.0912 30.6463 26.7837C25.9293 27.3179 23.8982 28.98 23.5299 32.4247C23.1694 35.8022 25.6962 39.5032 31.9023 39.1728ZM30.4726 28.506C32.0044 28.3887 33.544 28.5912 34.9934 29.1004C32.7971 31.5076 30.3151 34.5817 28.6151 36.8259C23.1014 35.4942 24.6354 28.9877 30.4726 28.506Z" fill="#001434"/>
<path d="M4.49191 60.738C4.83777 61.107 5.51482 60.7302 5.71863 60.257C8.19292 54.5696 13.3229 48.7703 18.3479 45.8668C28.3523 58.6389 55.2058 60.7665 63.3745 45.822C64.3449 49.7863 67.6768 55.6381 69.3251 55.3069C71.3555 54.9008 68.4759 52.5694 67.8506 51.2299C76.4708 53.8702 84.6394 46.6944 84.0627 38.1946C92.3595 50.6586 88.7642 67.8312 67.4916 64.4614C66.9349 60.7982 66.0024 55.9013 64.287 55.5632C63.7836 55.4652 63.5497 56.2773 63.7304 56.759C65.611 61.8968 65.8966 67.3502 65.8441 71.3592C65.8217 73.3302 67.6969 72.9233 67.8004 71.3592C67.9119 69.7046 67.8884 68.0437 67.7301 66.3929C89.4915 70.7633 96.299 47.9111 83.8574 35.281C82.6314 27.3834 77.7793 19.8007 69.8508 23.3057C68.9113 20.6885 67.0453 20.9896 64.524 21.696C62.0582 -4.28203 10.4649 1.86238 15.7902 28.9506C11.0439 33.4336 12.8721 39.2561 17.0918 44.4386C9.91604 48.8452 2.59664 58.7601 4.49191 60.738ZM69.9489 45.7919C77.3053 44.3475 72.4919 31.9884 70.5356 25.0612C73.7703 23.782 76.2376 24.1579 78.3514 26.6477C77.012 26.9264 72.8979 29.1953 75.1545 30.2661C76.0948 30.71 77.4412 28.807 79.5171 28.2951C80.3042 29.689 80.9299 31.1679 81.3823 32.7033C78.8779 33.4753 75.1167 36.2383 76.8614 37.0265C77.9422 37.5229 79.6152 35.2586 81.8416 34.5137C84.512 44.1637 75.9288 53.2364 66.3837 48.7757C65.8616 47.7573 65.4747 46.675 65.2327 45.5564C66.7759 45.9311 68.376 46.011 69.9489 45.7919ZM58.5386 12.8226C61.0322 14.9255 65.8271 23.6847 60.1598 20.6754C60.7087 16.1623 54.5859 10.4309 50.028 8.25691C53.1438 9.18913 56.0388 10.7422 58.5386 12.8226ZM51.2045 16.0341C51.5539 15.919 51.9325 15.9289 52.2754 16.0621C52.6183 16.1954 52.9043 16.4436 53.0844 16.7644C49.6397 16.8995 51.3697 21.7516 48.9325 21.6536C50.143 20.3218 49.4737 16.7112 51.2045 16.0341ZM39.4322 16.3669C36.6638 15.7655 36.3928 19.2102 35.1221 20.098C35.7366 17.7264 35.1568 13.8316 39.4322 16.3669ZM27.9609 9.821C28.4874 9.56366 29.0214 9.32306 29.5629 9.09917C21.2136 14.7557 18.7161 23.4215 19.1462 27.8891C18.626 28.0438 18.0956 28.162 17.5589 28.2426C16.9112 24.3386 17.6554 14.9139 27.9609 9.821ZM14.88 34.5685C15.0648 32.8574 15.903 31.2837 17.22 30.1757C25.8549 29.115 23.7411 21.4621 26.9156 20.0725C30.0901 18.6829 35.9798 25.0133 37.7098 19.651C37.9654 18.8612 38.1831 18.2976 38.83 18.2065C41.441 17.8306 47.0673 24.3602 49.7377 23.4948C51.7156 23.081 52.0537 21.4297 52.2344 20.3296C53.0836 15.1996 59.3878 24.3239 62.3369 23.2254C62.8662 24.7115 63.2615 26.2421 63.518 27.7987C60.5165 25.3993 55.0445 25.7853 51.8793 27.9871C49.6551 29.5381 48.8159 33.8104 51.0748 36.3518C53.9861 39.6313 60.8531 39.578 63.9295 36.7803C63.3891 51.3959 48.4415 57.0601 35.0001 53.7274C31.4134 52.9413 27.9902 51.5389 24.8829 49.5825C18.5957 45.3781 14.406 38.2849 14.88 34.5685ZM60.7573 28.4696C58.5468 30.9432 56.4941 33.5533 54.6114 36.2846C50.7282 34.6295 51.6152 30.9246 52.9338 29.8083C54.0135 28.9328 55.3003 28.3498 56.6703 28.1151C58.0404 27.8804 59.4478 28.0019 60.7573 28.4681V28.4696Z" fill="#001434"/>
<path d="M32.2024 25.1819C33.6468 25.3919 35.5498 25.0159 38.3182 26.37C38.5665 26.4684 38.8429 26.4684 39.0911 26.3699C39.3394 26.2715 39.5407 26.082 39.6539 25.8401C39.7672 25.5983 39.7839 25.3224 39.7007 25.0686C39.6175 24.8149 39.4405 24.6025 39.206 24.4748C37.4528 23.4711 33.3758 22.9624 31.8411 23.3538C30.9764 23.5646 30.7587 24.9712 32.2024 25.1819Z" fill="#001434"/>
<path d="M35.667 43.061C33.771 44.7309 37.103 48.6643 42.8351 48.7932C48.138 48.9059 50.4247 45.235 49.0783 43.4447C48.5974 42.8124 47.4764 42.3091 45.6406 42.7978C43.7182 43.2738 41.7056 43.2472 39.7965 42.7206C37.6194 42.2334 36.2954 42.5044 35.667 43.061ZM46.2922 44.5448C47.0966 44.297 47.5637 44.297 47.4425 44.8158C47.0819 46.3598 44.735 47.0122 42.4931 46.9597C40.1539 46.9072 36.8521 45.4102 36.9269 44.3565C36.9347 44.2136 37.2126 44.1009 37.604 44.2067C40.2821 44.9185 42.8544 45.6334 46.2922 44.5448Z" fill="#001434"/>
<path d="M49.354 27.0091C51.1589 26.8547 52.0243 25.1208 54.758 25.2867C54.8813 25.2961 55.0053 25.2802 55.1222 25.2398C55.2392 25.1994 55.3466 25.1356 55.4379 25.0521C55.5292 24.9686 55.6024 24.8673 55.653 24.7544C55.7037 24.6416 55.7306 24.5195 55.7323 24.3958C55.5146 22.1918 50.4517 23.8763 48.6769 25.4334C48.529 25.5569 48.4248 25.7248 48.38 25.9123C48.3352 26.0997 48.3521 26.2965 48.4281 26.4736C48.5042 26.6506 48.6354 26.7984 48.8022 26.8949C48.969 26.9914 49.1626 27.0314 49.354 27.0091Z" fill="#001434"/>
<path d="M40.9746 38.4501C44.1785 39.3225 46.5099 38.2772 47.4502 36.8328C48.7742 34.7869 47.556 31.5059 46.3146 32.2069C45.4121 32.718 46.7963 34.6889 45.8259 35.8021C45.0362 36.7046 43.9731 37.2388 41.4927 36.7201C40.0868 36.419 39.7857 38.1946 40.9746 38.4501Z" fill="#001434"/>
</svg>
